<mxfile host="app.diagrams.net" modified="2023-05-30T06:49:59.533Z" agent="5.0 (Macintosh; Intel Mac OS X 10_15_7) AppleWebKit/537.36 (KHTML, like Gecko) Chrome/113.0.0.0 Safari/537.36" etag="LKFVA8J-c6m2vOps01S8" version="20.8.3" type="github">
  <diagram name="Page-1" id="edf60f1a-56cd-e834-aa8a-f176f3a09ee4">
    <mxGraphModel dx="1434" dy="803" grid="1" gridSize="10" guides="1" tooltips="1" connect="1" arrows="1" fold="1" page="1" pageScale="1" pageWidth="1100" pageHeight="850" background="none" math="0" shadow="0">
      <root>
        <mxCell id="0" />
        <mxCell id="1" parent="0" />
        <mxCell id="TOv_dd56ktXs9hrHqLOH-7" style="edgeStyle=orthogonalEdgeStyle;rounded=0;orthogonalLoop=1;jettySize=auto;html=1;entryX=0.5;entryY=0;entryDx=0;entryDy=0;" edge="1" parent="1" source="TOv_dd56ktXs9hrHqLOH-3" target="TOv_dd56ktXs9hrHqLOH-6">
          <mxGeometry relative="1" as="geometry" />
        </mxCell>
        <mxCell id="TOv_dd56ktXs9hrHqLOH-3" value="Call get 1 forwader" style="rounded=0;whiteSpace=wrap;html=1;" vertex="1" parent="1">
          <mxGeometry x="290" y="210" width="120" height="60" as="geometry" />
        </mxCell>
        <mxCell id="TOv_dd56ktXs9hrHqLOH-9" style="edgeStyle=orthogonalEdgeStyle;rounded=0;orthogonalLoop=1;jettySize=auto;html=1;exitX=1;exitY=0.5;exitDx=0;exitDy=0;entryX=0;entryY=0.5;entryDx=0;entryDy=0;" edge="1" parent="1" source="TOv_dd56ktXs9hrHqLOH-6" target="TOv_dd56ktXs9hrHqLOH-8">
          <mxGeometry relative="1" as="geometry" />
        </mxCell>
        <mxCell id="TOv_dd56ktXs9hrHqLOH-10" value="Fail&lt;br&gt;" style="edgeLabel;html=1;align=center;verticalAlign=middle;resizable=0;points=[];" vertex="1" connectable="0" parent="TOv_dd56ktXs9hrHqLOH-9">
          <mxGeometry x="-0.2364" y="-2" relative="1" as="geometry">
            <mxPoint as="offset" />
          </mxGeometry>
        </mxCell>
        <mxCell id="TOv_dd56ktXs9hrHqLOH-12" style="edgeStyle=orthogonalEdgeStyle;rounded=0;orthogonalLoop=1;jettySize=auto;html=1;entryX=0.5;entryY=0;entryDx=0;entryDy=0;" edge="1" parent="1" source="TOv_dd56ktXs9hrHqLOH-6" target="TOv_dd56ktXs9hrHqLOH-11">
          <mxGeometry relative="1" as="geometry" />
        </mxCell>
        <mxCell id="TOv_dd56ktXs9hrHqLOH-15" value="Sucess&lt;br&gt;" style="edgeLabel;html=1;align=center;verticalAlign=middle;resizable=0;points=[];" vertex="1" connectable="0" parent="TOv_dd56ktXs9hrHqLOH-12">
          <mxGeometry x="-0.3333" relative="1" as="geometry">
            <mxPoint as="offset" />
          </mxGeometry>
        </mxCell>
        <mxCell id="TOv_dd56ktXs9hrHqLOH-6" value="" style="rhombus;whiteSpace=wrap;html=1;" vertex="1" parent="1">
          <mxGeometry x="310" y="300" width="80" height="80" as="geometry" />
        </mxCell>
        <mxCell id="TOv_dd56ktXs9hrHqLOH-8" value="404" style="whiteSpace=wrap;html=1;" vertex="1" parent="1">
          <mxGeometry x="490" y="310" width="120" height="60" as="geometry" />
        </mxCell>
        <mxCell id="TOv_dd56ktXs9hrHqLOH-17" style="edgeStyle=orthogonalEdgeStyle;rounded=0;orthogonalLoop=1;jettySize=auto;html=1;exitX=0.5;exitY=1;exitDx=0;exitDy=0;entryX=0.5;entryY=0;entryDx=0;entryDy=0;" edge="1" parent="1" source="TOv_dd56ktXs9hrHqLOH-11" target="TOv_dd56ktXs9hrHqLOH-16">
          <mxGeometry relative="1" as="geometry" />
        </mxCell>
        <mxCell id="TOv_dd56ktXs9hrHqLOH-11" value="Show Logo&amp;nbsp;" style="whiteSpace=wrap;html=1;" vertex="1" parent="1">
          <mxGeometry x="290" y="420" width="120" height="60" as="geometry" />
        </mxCell>
        <mxCell id="TOv_dd56ktXs9hrHqLOH-43" style="edgeStyle=orthogonalEdgeStyle;rounded=0;orthogonalLoop=1;jettySize=auto;html=1;" edge="1" parent="1" source="TOv_dd56ktXs9hrHqLOH-16" target="TOv_dd56ktXs9hrHqLOH-42">
          <mxGeometry relative="1" as="geometry" />
        </mxCell>
        <mxCell id="TOv_dd56ktXs9hrHqLOH-16" value="Login&lt;br&gt;" style="whiteSpace=wrap;html=1;" vertex="1" parent="1">
          <mxGeometry x="290" y="520" width="120" height="60" as="geometry" />
        </mxCell>
        <mxCell id="TOv_dd56ktXs9hrHqLOH-36" style="edgeStyle=orthogonalEdgeStyle;rounded=0;orthogonalLoop=1;jettySize=auto;html=1;" edge="1" parent="1" source="TOv_dd56ktXs9hrHqLOH-20" target="TOv_dd56ktXs9hrHqLOH-32">
          <mxGeometry relative="1" as="geometry" />
        </mxCell>
        <mxCell id="TOv_dd56ktXs9hrHqLOH-20" value="Get Associated" style="whiteSpace=wrap;html=1;" vertex="1" parent="1">
          <mxGeometry x="290" y="730" width="120" height="60" as="geometry" />
        </mxCell>
        <mxCell id="TOv_dd56ktXs9hrHqLOH-75" style="edgeStyle=orthogonalEdgeStyle;rounded=0;orthogonalLoop=1;jettySize=auto;html=1;entryX=0.5;entryY=0;entryDx=0;entryDy=0;" edge="1" parent="1" source="TOv_dd56ktXs9hrHqLOH-32" target="TOv_dd56ktXs9hrHqLOH-74">
          <mxGeometry relative="1" as="geometry" />
        </mxCell>
        <mxCell id="TOv_dd56ktXs9hrHqLOH-77" value="yes&lt;br&gt;" style="edgeLabel;html=1;align=center;verticalAlign=middle;resizable=0;points=[];" vertex="1" connectable="0" parent="TOv_dd56ktXs9hrHqLOH-75">
          <mxGeometry x="-0.96" y="3" relative="1" as="geometry">
            <mxPoint x="-3" y="19" as="offset" />
          </mxGeometry>
        </mxCell>
        <mxCell id="TOv_dd56ktXs9hrHqLOH-80" value="no" style="edgeStyle=orthogonalEdgeStyle;rounded=0;orthogonalLoop=1;jettySize=auto;html=1;" edge="1" parent="1" source="TOv_dd56ktXs9hrHqLOH-32">
          <mxGeometry relative="1" as="geometry">
            <mxPoint x="540" y="860" as="targetPoint" />
          </mxGeometry>
        </mxCell>
        <mxCell id="TOv_dd56ktXs9hrHqLOH-32" value="shortName&amp;nbsp;&lt;br&gt;&amp;nbsp;digitrad" style="rhombus;whiteSpace=wrap;html=1;" vertex="1" parent="1">
          <mxGeometry x="310" y="820" width="80" height="80" as="geometry" />
        </mxCell>
        <mxCell id="TOv_dd56ktXs9hrHqLOH-39" style="edgeStyle=orthogonalEdgeStyle;rounded=0;orthogonalLoop=1;jettySize=auto;html=1;entryX=0.5;entryY=0;entryDx=0;entryDy=0;" edge="1" parent="1" source="TOv_dd56ktXs9hrHqLOH-37" target="TOv_dd56ktXs9hrHqLOH-40">
          <mxGeometry relative="1" as="geometry">
            <mxPoint x="350" y="1190" as="targetPoint" />
          </mxGeometry>
        </mxCell>
        <mxCell id="TOv_dd56ktXs9hrHqLOH-67" value="no&lt;br&gt;" style="edgeLabel;html=1;align=center;verticalAlign=middle;resizable=0;points=[];" vertex="1" connectable="0" parent="TOv_dd56ktXs9hrHqLOH-39">
          <mxGeometry y="2" relative="1" as="geometry">
            <mxPoint as="offset" />
          </mxGeometry>
        </mxCell>
        <mxCell id="TOv_dd56ktXs9hrHqLOH-71" value="" style="edgeStyle=orthogonalEdgeStyle;rounded=0;orthogonalLoop=1;jettySize=auto;html=1;" edge="1" parent="1" source="TOv_dd56ktXs9hrHqLOH-37" target="TOv_dd56ktXs9hrHqLOH-70">
          <mxGeometry relative="1" as="geometry" />
        </mxCell>
        <mxCell id="TOv_dd56ktXs9hrHqLOH-37" value="check associated with digtrad&lt;br&gt;" style="rhombus;whiteSpace=wrap;html=1;" vertex="1" parent="1">
          <mxGeometry x="310" y="1080" width="80" height="80" as="geometry" />
        </mxCell>
        <mxCell id="TOv_dd56ktXs9hrHqLOH-79" style="edgeStyle=orthogonalEdgeStyle;rounded=0;orthogonalLoop=1;jettySize=auto;html=1;entryX=0.5;entryY=1;entryDx=0;entryDy=0;" edge="1" parent="1" source="TOv_dd56ktXs9hrHqLOH-40" target="TOv_dd56ktXs9hrHqLOH-70">
          <mxGeometry relative="1" as="geometry" />
        </mxCell>
        <mxCell id="TOv_dd56ktXs9hrHqLOH-40" value="Call post" style="whiteSpace=wrap;html=1;" vertex="1" parent="1">
          <mxGeometry x="290" y="1280" width="120" height="60" as="geometry" />
        </mxCell>
        <mxCell id="TOv_dd56ktXs9hrHqLOH-44" value="No" style="edgeStyle=orthogonalEdgeStyle;rounded=0;orthogonalLoop=1;jettySize=auto;html=1;entryX=0.5;entryY=0;entryDx=0;entryDy=0;" edge="1" parent="1" source="TOv_dd56ktXs9hrHqLOH-42" target="TOv_dd56ktXs9hrHqLOH-20">
          <mxGeometry relative="1" as="geometry" />
        </mxCell>
        <mxCell id="TOv_dd56ktXs9hrHqLOH-47" style="edgeStyle=orthogonalEdgeStyle;rounded=0;orthogonalLoop=1;jettySize=auto;html=1;exitX=1;exitY=0.5;exitDx=0;exitDy=0;entryX=0;entryY=0.5;entryDx=0;entryDy=0;" edge="1" parent="1" source="TOv_dd56ktXs9hrHqLOH-42" target="TOv_dd56ktXs9hrHqLOH-46">
          <mxGeometry relative="1" as="geometry" />
        </mxCell>
        <mxCell id="TOv_dd56ktXs9hrHqLOH-48" value="yes&lt;br&gt;" style="edgeLabel;html=1;align=center;verticalAlign=middle;resizable=0;points=[];" vertex="1" connectable="0" parent="TOv_dd56ktXs9hrHqLOH-47">
          <mxGeometry x="-0.68" y="4" relative="1" as="geometry">
            <mxPoint as="offset" />
          </mxGeometry>
        </mxCell>
        <mxCell id="TOv_dd56ktXs9hrHqLOH-42" value="isForwader" style="rhombus;whiteSpace=wrap;html=1;" vertex="1" parent="1">
          <mxGeometry x="310" y="610" width="80" height="80" as="geometry" />
        </mxCell>
        <mxCell id="TOv_dd56ktXs9hrHqLOH-46" value="End" style="rounded=1;whiteSpace=wrap;html=1;" vertex="1" parent="1">
          <mxGeometry x="440" y="630" width="70" height="40" as="geometry" />
        </mxCell>
        <mxCell id="TOv_dd56ktXs9hrHqLOH-58" style="edgeStyle=orthogonalEdgeStyle;rounded=0;orthogonalLoop=1;jettySize=auto;html=1;exitX=0;exitY=0.5;exitDx=0;exitDy=0;entryX=0.5;entryY=0;entryDx=0;entryDy=0;" edge="1" parent="1" source="TOv_dd56ktXs9hrHqLOH-51" target="TOv_dd56ktXs9hrHqLOH-54">
          <mxGeometry relative="1" as="geometry" />
        </mxCell>
        <mxCell id="TOv_dd56ktXs9hrHqLOH-51" value="" style="ellipse;whiteSpace=wrap;html=1;" vertex="1" parent="1">
          <mxGeometry x="335" y="20" width="30" height="30" as="geometry" />
        </mxCell>
        <mxCell id="TOv_dd56ktXs9hrHqLOH-60" value="Yes" style="edgeStyle=orthogonalEdgeStyle;rounded=0;orthogonalLoop=1;jettySize=auto;html=1;" edge="1" parent="1" source="TOv_dd56ktXs9hrHqLOH-54" target="TOv_dd56ktXs9hrHqLOH-61">
          <mxGeometry relative="1" as="geometry">
            <mxPoint x="788" y="120" as="targetPoint" />
            <Array as="points">
              <mxPoint x="193" y="460" />
              <mxPoint x="193" y="460" />
            </Array>
          </mxGeometry>
        </mxCell>
        <mxCell id="TOv_dd56ktXs9hrHqLOH-64" style="edgeStyle=orthogonalEdgeStyle;rounded=0;orthogonalLoop=1;jettySize=auto;html=1;" edge="1" parent="1" source="TOv_dd56ktXs9hrHqLOH-54" target="TOv_dd56ktXs9hrHqLOH-3">
          <mxGeometry relative="1" as="geometry" />
        </mxCell>
        <mxCell id="TOv_dd56ktXs9hrHqLOH-54" value="Login&lt;br&gt;?" style="rhombus;whiteSpace=wrap;html=1;" vertex="1" parent="1">
          <mxGeometry x="307.5" y="70" width="85" height="80" as="geometry" />
        </mxCell>
        <mxCell id="TOv_dd56ktXs9hrHqLOH-63" style="edgeStyle=orthogonalEdgeStyle;rounded=0;orthogonalLoop=1;jettySize=auto;html=1;" edge="1" parent="1" source="TOv_dd56ktXs9hrHqLOH-61" target="TOv_dd56ktXs9hrHqLOH-42">
          <mxGeometry relative="1" as="geometry" />
        </mxCell>
        <mxCell id="TOv_dd56ktXs9hrHqLOH-61" value="GetMe" style="whiteSpace=wrap;html=1;" vertex="1" parent="1">
          <mxGeometry x="140" y="620" width="120" height="60" as="geometry" />
        </mxCell>
        <mxCell id="TOv_dd56ktXs9hrHqLOH-62" style="edgeStyle=orthogonalEdgeStyle;rounded=0;orthogonalLoop=1;jettySize=auto;html=1;exitX=0.75;exitY=1;exitDx=0;exitDy=0;entryX=0.667;entryY=1;entryDx=0;entryDy=0;entryPerimeter=0;" edge="1" parent="1" source="TOv_dd56ktXs9hrHqLOH-61" target="TOv_dd56ktXs9hrHqLOH-61">
          <mxGeometry relative="1" as="geometry" />
        </mxCell>
        <mxCell id="TOv_dd56ktXs9hrHqLOH-70" value="end&lt;br&gt;" style="rounded=1;whiteSpace=wrap;html=1;" vertex="1" parent="1">
          <mxGeometry x="450" y="1105" width="50" height="30" as="geometry" />
        </mxCell>
        <mxCell id="TOv_dd56ktXs9hrHqLOH-78" style="edgeStyle=orthogonalEdgeStyle;rounded=0;orthogonalLoop=1;jettySize=auto;html=1;exitX=0.5;exitY=1;exitDx=0;exitDy=0;entryX=0.5;entryY=0;entryDx=0;entryDy=0;" edge="1" parent="1" source="TOv_dd56ktXs9hrHqLOH-74" target="TOv_dd56ktXs9hrHqLOH-37">
          <mxGeometry relative="1" as="geometry" />
        </mxCell>
        <mxCell id="TOv_dd56ktXs9hrHqLOH-74" value="Call get All&lt;br&gt;" style="whiteSpace=wrap;html=1;" vertex="1" parent="1">
          <mxGeometry x="290" y="950" width="120" height="60" as="geometry" />
        </mxCell>
        <mxCell id="TOv_dd56ktXs9hrHqLOH-89" style="edgeStyle=orthogonalEdgeStyle;rounded=0;orthogonalLoop=1;jettySize=auto;html=1;entryX=0;entryY=0.5;entryDx=0;entryDy=0;" edge="1" parent="1" source="TOv_dd56ktXs9hrHqLOH-82" target="TOv_dd56ktXs9hrHqLOH-88">
          <mxGeometry relative="1" as="geometry" />
        </mxCell>
        <mxCell id="TOv_dd56ktXs9hrHqLOH-94" value="yes&lt;br&gt;" style="edgeLabel;html=1;align=center;verticalAlign=middle;resizable=0;points=[];" vertex="1" connectable="0" parent="TOv_dd56ktXs9hrHqLOH-89">
          <mxGeometry x="-0.2" y="-2" relative="1" as="geometry">
            <mxPoint as="offset" />
          </mxGeometry>
        </mxCell>
        <mxCell id="TOv_dd56ktXs9hrHqLOH-91" style="edgeStyle=orthogonalEdgeStyle;rounded=0;orthogonalLoop=1;jettySize=auto;html=1;exitX=0.5;exitY=1;exitDx=0;exitDy=0;entryX=0;entryY=0.5;entryDx=0;entryDy=0;" edge="1" parent="1" source="TOv_dd56ktXs9hrHqLOH-82" target="TOv_dd56ktXs9hrHqLOH-92">
          <mxGeometry relative="1" as="geometry">
            <mxPoint x="600" y="950" as="targetPoint" />
          </mxGeometry>
        </mxCell>
        <mxCell id="TOv_dd56ktXs9hrHqLOH-93" value="no&lt;br&gt;" style="edgeLabel;html=1;align=center;verticalAlign=middle;resizable=0;points=[];" vertex="1" connectable="0" parent="TOv_dd56ktXs9hrHqLOH-91">
          <mxGeometry x="-0.32" y="-1" relative="1" as="geometry">
            <mxPoint as="offset" />
          </mxGeometry>
        </mxCell>
        <mxCell id="TOv_dd56ktXs9hrHqLOH-82" value="associated with digitrad" style="rhombus;whiteSpace=wrap;html=1;" vertex="1" parent="1">
          <mxGeometry x="540" y="820" width="120" height="80" as="geometry" />
        </mxCell>
        <mxCell id="TOv_dd56ktXs9hrHqLOH-101" style="edgeStyle=orthogonalEdgeStyle;rounded=0;orthogonalLoop=1;jettySize=auto;html=1;" edge="1" parent="1" source="TOv_dd56ktXs9hrHqLOH-88" target="TOv_dd56ktXs9hrHqLOH-92">
          <mxGeometry relative="1" as="geometry" />
        </mxCell>
        <mxCell id="TOv_dd56ktXs9hrHqLOH-88" value="Call get All forwarder" style="whiteSpace=wrap;html=1;" vertex="1" parent="1">
          <mxGeometry x="760" y="830" width="120" height="60" as="geometry" />
        </mxCell>
        <mxCell id="TOv_dd56ktXs9hrHqLOH-98" style="edgeStyle=orthogonalEdgeStyle;rounded=0;orthogonalLoop=1;jettySize=auto;html=1;entryX=0.5;entryY=0;entryDx=0;entryDy=0;entryPerimeter=0;" edge="1" parent="1" source="TOv_dd56ktXs9hrHqLOH-92" target="TOv_dd56ktXs9hrHqLOH-95">
          <mxGeometry relative="1" as="geometry">
            <mxPoint x="630" y="1090" as="targetPoint" />
            <Array as="points">
              <mxPoint x="820" y="1080" />
              <mxPoint x="920" y="1080" />
            </Array>
          </mxGeometry>
        </mxCell>
        <mxCell id="TOv_dd56ktXs9hrHqLOH-99" value="no" style="edgeLabel;html=1;align=center;verticalAlign=middle;resizable=0;points=[];" vertex="1" connectable="0" parent="TOv_dd56ktXs9hrHqLOH-98">
          <mxGeometry x="0.0235" y="-1" relative="1" as="geometry">
            <mxPoint as="offset" />
          </mxGeometry>
        </mxCell>
        <mxCell id="TOv_dd56ktXs9hrHqLOH-109" style="edgeStyle=orthogonalEdgeStyle;rounded=0;orthogonalLoop=1;jettySize=auto;html=1;entryX=0.5;entryY=0;entryDx=0;entryDy=0;" edge="1" parent="1" source="TOv_dd56ktXs9hrHqLOH-92" target="TOv_dd56ktXs9hrHqLOH-104">
          <mxGeometry relative="1" as="geometry">
            <Array as="points">
              <mxPoint x="820" y="1080" />
              <mxPoint x="730" y="1080" />
            </Array>
          </mxGeometry>
        </mxCell>
        <mxCell id="TOv_dd56ktXs9hrHqLOH-110" value="yes" style="edgeLabel;html=1;align=center;verticalAlign=middle;resizable=0;points=[];" vertex="1" connectable="0" parent="TOv_dd56ktXs9hrHqLOH-109">
          <mxGeometry x="-0.0359" relative="1" as="geometry">
            <mxPoint as="offset" />
          </mxGeometry>
        </mxCell>
        <mxCell id="TOv_dd56ktXs9hrHqLOH-92" value="associated with shortName" style="rhombus;whiteSpace=wrap;html=1;" vertex="1" parent="1">
          <mxGeometry x="780" y="960" width="80" height="80" as="geometry" />
        </mxCell>
        <mxCell id="TOv_dd56ktXs9hrHqLOH-106" value="" style="edgeStyle=orthogonalEdgeStyle;rounded=0;orthogonalLoop=1;jettySize=auto;html=1;" edge="1" parent="1" source="TOv_dd56ktXs9hrHqLOH-95" target="TOv_dd56ktXs9hrHqLOH-105">
          <mxGeometry relative="1" as="geometry" />
        </mxCell>
        <mxCell id="TOv_dd56ktXs9hrHqLOH-95" value="Call post associated" style="whiteSpace=wrap;html=1;" vertex="1" parent="1">
          <mxGeometry x="860" y="1130" width="120" height="60" as="geometry" />
        </mxCell>
        <mxCell id="TOv_dd56ktXs9hrHqLOH-104" value="end&lt;br&gt;" style="rounded=1;whiteSpace=wrap;html=1;" vertex="1" parent="1">
          <mxGeometry x="700" y="1145" width="60" height="30" as="geometry" />
        </mxCell>
        <mxCell id="TOv_dd56ktXs9hrHqLOH-107" style="edgeStyle=orthogonalEdgeStyle;rounded=0;orthogonalLoop=1;jettySize=auto;html=1;entryX=0.5;entryY=1;entryDx=0;entryDy=0;" edge="1" parent="1" source="TOv_dd56ktXs9hrHqLOH-105" target="TOv_dd56ktXs9hrHqLOH-104">
          <mxGeometry relative="1" as="geometry" />
        </mxCell>
        <mxCell id="TOv_dd56ktXs9hrHqLOH-105" value="Get Associated" style="whiteSpace=wrap;html=1;" vertex="1" parent="1">
          <mxGeometry x="860" y="1270" width="120" height="60" as="geometry" />
        </mxCell>
      </root>
    </mxGraphModel>
  </diagram>
</mxfile>
